<?xml version="1.0" encoding="utf-8"?>
<!-- Generator: Adobe Illustrator 19.1.0, SVG Export Plug-In . SVG Version: 6.00 Build 0)  -->
<!DOCTYPE svg PUBLIC "-//W3C//DTD SVG 1.1//EN" "http://www.w3.org/Graphics/SVG/1.1/DTD/svg11.dtd">
<svg version="1.1" id="Layer_1" xmlns="http://www.w3.org/2000/svg" xmlns:xlink="http://www.w3.org/1999/xlink" x="0px" y="0px"
	 width="3318px" height="3318px" viewBox="0 0 3318 3318" enable-background="new 0 0 3318 3318" xml:space="preserve">
<path fill="#010202" d="M1125.09766,1174.09766c-55.14014,0-100-44.85986-100-100s44.85986-100,100-100s100,44.85986,100,100
	S1180.23779,1174.09766,1125.09766,1174.09766z M1125.09766,994.09766c-44.1123,0-80,35.8877-80,80s35.8877,80,80,80
	s80-35.8877,80-80S1169.20996,994.09766,1125.09766,994.09766z"/>
<path fill="#010202" d="M1125,958c-5.52295,0-10-4.47705-10-10v-54c0-5.52295,4.47705-10,10-10s10,4.47705,10,10v54
	C1135,953.52295,1130.52295,958,1125,958z"/>
<path fill="#010202" d="M1125,1264c-5.52295,0-10-4.47705-10-10v-54c0-5.52295,4.47705-10,10-10s10,4.47705,10,10v54
	C1135,1259.52295,1130.52295,1264,1125,1264z"/>
<path fill="#010202" d="M999,1084h-54c-5.52295,0-10-4.47705-10-10s4.47705-10,10-10h54c5.52295,0,10,4.47705,10,10
	S1004.52295,1084,999,1084z"/>
<path fill="#010202" d="M1305,1084h-54c-5.52295,0-10-4.47705-10-10s4.47705-10,10-10h54c5.52295,0,10,4.47705,10,10
	S1310.52295,1084,1305,1084z"/>
<path fill="#010202" d="M1213.54199,995.45801c-2.55908,0-5.11865-0.97607-7.07129-2.92871
	c-3.90479-3.90527-3.90479-10.2373,0-14.14258l38.7373-38.7373c3.90527-3.90527,10.2373-3.90527,14.14258,0
	c3.90479,3.90527,3.90479,10.2373,0,14.14258l-38.7373,38.7373C1218.66064,994.48193,1216.10107,995.45801,1213.54199,995.45801z"/>
<path fill="#010202" d="M997.7207,1211.2793c-2.55908,0-5.11865-0.97607-7.07129-2.92871
	c-3.90479-3.90527-3.90479-10.2373,0-14.14258l38.7373-38.7373c3.90527-3.90527,10.2373-3.90527,14.14258,0
	c3.90479,3.90527,3.90479,10.2373,0,14.14258l-38.7373,38.7373C1002.83936,1210.30322,1000.27979,1211.2793,997.7207,1211.2793z"/>
<path fill="#010202" d="M1036.45801,995.45801c-2.55908,0-5.11865-0.97607-7.07129-2.92871l-38.7373-38.7373
	c-3.90479-3.90527-3.90479-10.2373,0-14.14258c3.90527-3.90527,10.2373-3.90527,14.14258,0l38.7373,38.7373
	c3.90479,3.90527,3.90479,10.2373,0,14.14258C1041.57666,994.48193,1039.01709,995.45801,1036.45801,995.45801z"/>
<path fill="#010202" d="M1252.2793,1211.2793c-2.55908,0-5.11865-0.97607-7.07129-2.92871l-38.7373-38.7373
	c-3.90479-3.90527-3.90479-10.2373,0-14.14258c3.90527-3.90527,10.2373-3.90527,14.14258,0l38.7373,38.7373
	c3.90479,3.90527,3.90479,10.2373,0,14.14258C1257.39795,1210.30322,1254.83838,1211.2793,1252.2793,1211.2793z"/>
<path fill="#010202" d="M1762.79785,1124.00049c-2.9082,0-5.79199-1.2627-7.76855-3.69678
	c-3.48145-4.28711-2.82812-10.58496,1.45898-14.06641c18.81738-15.28076,29.60938-37.93018,29.60938-62.13965
	c0-44.1123-35.8877-80-80-80c-40.80322,0-74.98096,30.52832-79.50146,71.01123c-0.61279,5.48877-5.55713,9.43896-11.04785,8.8291
	c-5.48828-0.61328-9.44141-5.55957-8.82812-11.04834c5.65186-50.61963,48.37451-88.79199,99.37744-88.79199
	c55.14062,0,100,44.85986,100,100c0,30.26123-13.48633,58.56934-37.00195,77.66504
	C1767.24219,1123.26807,1765.0127,1124.00049,1762.79785,1124.00049z"/>
<path fill="#010202" d="M1706,928c-5.52246,0-10-4.47705-10-10v-54c0-5.52295,4.47754-10,10-10s10,4.47705,10,10v54
	C1716,923.52295,1711.52246,928,1706,928z"/>
<path fill="#010202" d="M1580,1054h-54c-5.52295,0-10-4.47705-10-10s4.47705-10,10-10h54c5.52295,0,10,4.47705,10,10
	S1585.52295,1054,1580,1054z"/>
<path fill="#010202" d="M1886,1054h-54c-5.52246,0-10-4.47705-10-10s4.47754-10,10-10h54c5.52246,0,10,4.47705,10,10
	S1891.52246,1054,1886,1054z"/>
<path fill="#010202" d="M1794.54199,965.45801c-2.55957,0-5.11816-0.97607-7.07129-2.92871
	c-3.90527-3.90527-3.90527-10.2373,0-14.14258l38.7373-38.7373c3.90625-3.90527,10.23633-3.90527,14.14258,0
	c3.90527,3.90527,3.90527,10.2373,0,14.14258l-38.7373,38.7373C1799.66016,964.48193,1797.10156,965.45801,1794.54199,965.45801z"/>
<path fill="#010202" d="M1617.45801,965.45801c-2.55908,0-5.11865-0.97607-7.07129-2.92871l-38.7373-38.7373
	c-3.90479-3.90527-3.90479-10.2373,0-14.14258c3.90527-3.90527,10.2373-3.90527,14.14258,0l38.7373,38.7373
	c3.90479,3.90527,3.90479,10.2373,0,14.14258C1622.57666,964.48193,1620.01709,965.45801,1617.45801,965.45801z"/>
<path fill="#010202" d="M1833.2793,1181.2793c-2.55957,0-5.11816-0.97607-7.07129-2.92871l-38.7373-38.7373
	c-3.90527-3.90527-3.90527-10.2373,0-14.14258c3.90625-3.90527,10.23633-3.90527,14.14258,0l38.7373,38.7373
	c3.90527,3.90527,3.90527,10.2373,0,14.14258C1838.39746,1180.30322,1835.83887,1181.2793,1833.2793,1181.2793z"/>
<path fill="#010202" d="M1505.9668,1274c-38.47168-0.25342-69.7168-31.6582-69.7168-70.00635
	c0-33.32422,22.98682-61.17969,54.27881-68.2627c-0.50879-2.79932-0.76416-5.65576-0.76416-8.55908
	c0-26.25244,21.35791-47.61035,47.61084-47.61035c8.71973,0,17.07764,2.32715,24.36963,6.68799
	c19.98096-26.42285,50.81201-41.89746,84.46045-41.89746c52.58838,0,96.91553,38.73828,104.78076,89.78418
	c36.39844,2.45215,65.26367,32.84766,65.26367,69.85742c0,38.22217-31.0957,69.62451-69.31836,70.00098L1505.9668,1274z
	 M1537.37549,1099.56152c-15.22461,0-27.61084,12.38574-27.61084,27.61035c0,4.34326,0.98584,8.50684,2.93018,12.37402
	c1.52686,3.03711,1.40625,6.64209-0.32031,9.5708c-1.72656,2.92822-4.82275,4.77881-8.21973,4.91309
	c-26.8623,1.06055-47.90479,23.00732-47.90479,49.96387c0,27.39258,22.33252,49.82568,49.78271,50.00635l240.80029-0.00488
	c27.2041-0.26855,49.41699-22.69922,49.41699-50.00146c0-27.57959-22.4375-50.01709-50.0166-50.01709
	c-1.02734,0-2.14453,0.04443-3.51465,0.13965c-2.64648,0.18115-5.27441-0.69629-7.27734-2.44922
	c-2.00293-1.75244-3.22559-4.23047-3.39551-6.88672c-2.89355-45.1001-40.59863-80.42822-85.84033-80.42822
	c-30.33984,0-57.85889,15.50879-73.61377,41.48584c-1.59473,2.62988-4.31152,4.37939-7.36572,4.74414
	c-3.05371,0.36035-6.10596-0.69678-8.2749-2.87793C1551.729,1102.45312,1544.77686,1099.56152,1537.37549,1099.56152z"/>
<path fill="#010202" d="M2868.53223,1073.50049c-2.51562,0-5.02637-0.99268-6.89453-2.96191
	c-3.61035-3.80664-3.45215-9.81934,0.35449-13.43018c14.49023-13.74561,22.4707-32.31055,22.4707-52.2749
	c0-39.72217-32.31641-72.03809-72.03809-72.03809c-34.88867,0-64.70117,24.87305-70.88867,59.14258
	c-0.93262,5.16211-5.87695,8.59131-11.03613,7.66064c-5.16406-0.93213-8.59375-5.87354-7.66113-11.03662
	c7.82129-43.32275,45.49805-74.7666,89.58594-74.7666c50.19824,0,91.03809,40.83936,91.03809,91.03809
	c0,25.22949-10.08398,48.68994-28.39453,66.05908C2873.23145,1072.63574,2870.87891,1073.50049,2868.53223,1073.50049z"/>
<path fill="#010202" d="M2784.26855,905.82764c-4.37012,0-8.30371-3.03271-9.27246-7.47705l-10.01855-45.91992
	c-1.11914-5.12598,2.12988-10.18799,7.25586-11.30664c5.13574-1.11963,10.18945,2.13135,11.30664,7.25684l10.01855,45.91992
	c1.11914,5.12598-2.12988,10.18799-7.25586,11.30664C2785.62012,905.75635,2784.93848,905.82764,2784.26855,905.82764z"/>
<path fill="#010202" d="M2923.90039,994.60498c-4.37012,0-8.30371-3.03271-9.27246-7.47705
	c-1.11914-5.12598,2.12988-10.18799,7.25586-11.30664l48.85059-10.65771c5.13672-1.11963,10.18945,2.13135,11.30664,7.25684
	c1.11914,5.12598-2.12988,10.18799-7.25586,11.30664l-48.85059,10.65771
	C2925.25195,994.53369,2924.57031,994.60498,2923.90039,994.60498z"/>
<path fill="#010202" d="M2872.77246,921.85742c-1.75684,0-3.53418-0.48633-5.12305-1.50586
	c-4.41504-2.83398-5.69727-8.71094-2.86328-13.12646l26.80859-41.76904c2.83398-4.41553,8.70996-5.69727,13.12695-2.86377
	c4.41504,2.83398,5.69727,8.71094,2.86328,13.12646l-26.80859,41.76904
	C2878.96191,920.31494,2875.89941,921.85742,2872.77246,921.85742z"/>
<path fill="#010202" d="M2716.02539,956.05469c-1.75684,0-3.53418-0.48633-5.12207-1.50586l-41.76953-26.80811
	c-4.41602-2.83398-5.69824-8.71094-2.86426-13.12646s8.71094-5.69727,13.12598-2.86377l41.76953,26.80811
	c4.41602,2.83398,5.69824,8.71094,2.86426,13.12646C2722.21484,954.51221,2719.15234,956.05469,2716.02539,956.05469z"/>
<path fill="#010202" d="M2947.76172,1105.62646c-1.75684,0-3.53418-0.48633-5.12305-1.50586l-41.76855-26.80811
	c-4.41504-2.83398-5.69727-8.71094-2.86328-13.12646s8.70996-5.69873,13.12695-2.86377l41.76855,26.80811
	c4.41504,2.83398,5.69727,8.71094,2.86328,13.12646C2953.95117,1104.08398,2950.88867,1105.62646,2947.76172,1105.62646z"/>
<path fill="#010202" d="M2631.11035,1213.56055c-35.09863-0.23096-63.60254-28.88037-63.60254-63.86475
	c0-30.25537,20.77051-55.56934,49.10938-62.17969c-0.41699-2.4292-0.62598-4.90479-0.62598-7.41895
	c0-24.02686,19.54688-43.57422,43.57422-43.57422c7.8457,0,15.37207,2.05859,21.96484,5.9209
	c18.19336-23.85791,46.14258-37.82031,76.63379-37.82031c47.74414,0,88.00684,35.07959,95.30957,81.36914
	c33.04102,2.40674,59.1875,30.05859,59.1875,63.70312c0,34.86865-28.36816,63.51611-63.23633,63.85986L2631.11035,1213.56055z
	 M2659.56543,1055.52295c-13.5498,0-24.57422,11.02393-24.57422,24.57422c0,3.86621,0.87695,7.57129,2.60742,11.01172
	c1.45117,2.88574,1.33691,6.31055-0.30371,9.09277c-1.63965,2.78223-4.58105,4.54053-7.80859,4.66797
	c-24.10059,0.95166-42.97852,20.6416-42.97852,44.82617c0,24.57617,20.03711,44.70264,44.66504,44.86475l218.1582-0.00439
	c24.40137-0.24072,44.33008-20.36523,44.33008-44.86035c0-24.74316-20.13086-44.87354-44.87402-44.87354
	c-0.92578,0-1.92773,0.03955-3.15527,0.12451c-2.53027,0.17969-5.01074-0.66309-6.91211-2.32715
	c-1.90332-1.66455-3.06348-4.01904-3.22559-6.54199c-2.60645-40.62842-36.57324-72.4541-77.33008-72.4541
	c-27.33105,0-52.12305,13.97168-66.31641,37.37402c-1.51562,2.49805-4.0957,4.16016-6.99707,4.50635
	c-2.90332,0.34473-5.80176-0.6626-7.86133-2.7334C2672.34082,1058.09668,2666.15234,1055.52295,2659.56543,1055.52295z"/>
<path fill="#010202" d="M2714.45215,1312.82178c-2.43262,0-4.86523-0.92871-6.7207-2.78564
	c-3.70801-3.71191-3.70508-9.72705,0.00684-13.43506l22.6875-22.66455c3.71191-3.70752,9.72656-3.70508,13.43457,0.00635
	c3.70801,3.71191,3.70508,9.72705-0.00684,13.43506l-22.6875,22.66455
	C2719.31152,1311.89551,2716.88184,1312.82178,2714.45215,1312.82178z"/>
<path fill="#010202" d="M2635.63184,1261.18115c-2.43262,0-4.86523-0.92871-6.7207-2.78613
	c-3.70801-3.71191-3.70508-9.72656,0.00684-13.43506l14.30762-14.29297c3.71094-3.70703,9.72559-3.70459,13.43457,0.00732
	c3.70801,3.71191,3.70508,9.72656-0.00684,13.43506l-14.30762,14.29297
	C2640.49121,1260.25488,2638.06152,1261.18115,2635.63184,1261.18115z"/>
<path fill="#010202" d="M2761.56348,1261.18115c-2.43262,0-4.86523-0.92822-6.7207-2.78564
	c-3.70801-3.71191-3.70508-9.72705,0.00684-13.43506l14.30664-14.29297c3.71191-3.70703,9.72656-3.70557,13.43457,0.00635
	s3.70508,9.72705-0.00684,13.43506l-14.30664,14.29297C2766.42285,1260.25439,2763.99316,1261.18115,2761.56348,1261.18115z"/>
<path fill="#010202" d="M2802.33301,1283.97852c-2.43359,0-4.86621-0.9292-6.72168-2.78662
	c-3.70801-3.7124-3.7041-9.72754,0.00879-13.43506l37.1377-37.09033c3.71191-3.70801,9.72656-3.70361,13.43457,0.0083
	c3.70801,3.7124,3.7041,9.72754-0.00879,13.43506l-37.1377,37.09033
	C2807.19141,1283.05273,2804.7627,1283.97852,2802.33301,1283.97852z"/>
<path fill="#010202" d="M2665.5293,1293.94434c-2.43262,0-4.86523-0.92871-6.7207-2.78564
	c-3.70801-3.71191-3.70508-9.72705,0.00684-13.43506l47.10352-47.05615c3.71191-3.70801,9.72656-3.70459,13.43457,0.00635
	c3.70801,3.71191,3.70508,9.72705-0.00684,13.43506l-47.10352,47.05615
	C2670.38867,1293.01807,2667.95898,1293.94434,2665.5293,1293.94434z"/>
<path fill="#010202" d="M2076.9668,1252c-38.47168-0.25342-69.7168-31.6582-69.7168-70.00635
	c0-33.32422,22.98633-61.17969,54.2793-68.26221c-0.50879-2.7998-0.76465-5.65674-0.76465-8.55957
	c0-26.25244,21.3584-47.61035,47.61035-47.61035c8.7207,0,17.07812,2.32666,24.37012,6.68799
	c19.98145-26.42285,50.8125-41.89746,84.45996-41.89746c52.58789,0,96.91602,38.73828,104.78125,89.78418
	c36.39844,2.45215,65.26367,32.84766,65.26367,69.85742c0,38.22217-31.0957,69.62451-69.31836,70.00098L2076.9668,1252z
	 M2108.375,1077.56152c-15.22461,0-27.61035,12.38574-27.61035,27.61035c0,4.34277,0.98633,8.50586,2.93066,12.37402
	c1.52637,3.03711,1.40625,6.64209-0.32031,9.5708c-1.72656,2.92822-4.82324,4.77881-8.21973,4.91309
	c-26.8623,1.06055-47.90527,23.00732-47.90527,49.96387c0,27.39258,22.33203,49.82568,49.78223,50.00635l240.80078-0.00488
	c27.2041-0.26855,49.41699-22.69922,49.41699-50.00146c0-27.57959-22.4375-50.01709-50.0166-50.01709
	c-1.02734,0-2.14453,0.04443-3.51465,0.13965c-2.64453,0.18262-5.27441-0.69678-7.27734-2.44922s-3.22559-4.23047-3.39551-6.88672
	c-2.89355-45.1001-40.59961-80.42822-85.84082-80.42822c-30.33887,0-57.8584,15.50879-73.61426,41.48633
	c-1.59473,2.62988-4.31152,4.37939-7.36523,4.74365c-3.05469,0.36279-6.10547-0.69678-8.27539-2.87793
	C2122.72852,1080.45312,2115.77637,1077.56152,2108.375,1077.56152z"/>
<path fill="#010202" d="M2376.24023,1127.16748c-4.5332,0-8.63867-3.10352-9.72461-7.70752
	c-1.26758-5.37549,2.0625-10.76025,7.43848-12.02783c18.33789-4.32422,34.95508-13.73633,48.08594-27.03857
	c-22.94238-5.4541-43.84863-17.59814-60.15039-35.18262c-20.62109-22.24414-31.97754-51.2085-31.97754-81.55762
	c0-18.6582,4.24902-36.75342,12.40234-53.19141c-23.00488,1.95312-44.4707,11.72461-61.18066,28.00537
	c-18.74219,18.25977-29.46094,42.69678-30.18262,68.80957c-0.15332,5.521-4.73828,9.91064-10.27246,9.71973
	c-5.52051-0.15234-9.87207-4.75146-9.71973-10.27246c0.86621-31.34277,13.72852-60.6709,36.21777-82.58203
	c22.53223-21.95361,52.27051-34.04395,83.73535-34.04395c3.20605,0,6.49023,0.1333,9.75879,0.39648
	c3.57715,0.2876,6.72559,2.47021,8.25098,5.71875c1.52441,3.24854,1.19141,7.06494-0.87207,10.00049
	c-11.86621,16.87744-18.1377,36.73926-18.1377,57.43945c0,25.29102,9.46289,49.42627,26.64453,67.96045
	c17.09082,18.43555,40.24609,29.69629,65.20215,31.70752c3.57617,0.28857,6.72461,2.47119,8.24902,5.71924
	c1.52441,3.24854,1.19141,7.06494-0.87207,10c-16.96387,24.12744-42.03418,41.12354-70.5918,47.85742
	C2377.77246,1127.08008,2377,1127.16748,2376.24023,1127.16748z"/>
<path fill="#010202" d="M2639.06836,1817.61523c-35.85156-0.23633-64.96582-29.5-64.96582-65.2334
	c0-30.79004,21.06152-56.57031,49.84473-63.43701c-0.39062-2.38428-0.58691-4.81104-0.58691-7.27344
	c0-24.60303,20.01562-44.61865,44.61816-44.61865c7.92969,0,15.53906,2.05273,22.22656,5.9082
	c18.55273-24.17627,46.96289-38.31689,77.94727-38.31689c48.58398,0,89.57031,35.63037,97.13281,82.68945
	c33.61719,2.59277,60.17969,30.77686,60.17969,65.04834c0,35.61621-28.97559,64.87695-64.59082,65.22852L2639.06836,1817.61523z
	 M2667.97852,1657.05273c-13.57422,0-24.61816,11.04395-24.61816,24.61865c0,3.87207,0.87891,7.58398,2.6123,11.03271
	c1.52734,3.03711,1.40625,6.64209-0.32031,9.57031c-1.72656,2.92871-4.82324,4.77881-8.21973,4.91309
	c-24.29688,0.95947-43.33008,20.81152-43.33008,45.19434c0,24.77832,20.20117,45.06934,45.03223,45.2334l221.64062-0.00488
	c24.59766-0.24219,44.68945-20.53223,44.68945-45.22852c0-24.94727-20.2959-45.24268-45.24219-45.24268
	c-0.92773,0-1.93848,0.04004-3.18066,0.12646c-2.66504,0.18555-5.27441-0.69775-7.27637-2.44971
	c-2.00293-1.75195-3.22461-4.23047-3.39551-6.88623c-2.63672-41.09473-36.99414-73.28564-78.21777-73.28564
	c-27.64551,0-52.72168,14.13184-67.0791,37.80322c-1.59473,2.62988-4.31152,4.37939-7.36523,4.74365
	c-3.05273,0.36182-6.10547-0.69678-8.27539-2.87793C2680.77734,1659.63086,2674.57812,1657.05273,2667.97852,1657.05273z"/>
<path fill="#010202" d="M2921.24707,1700.88428c-4.2666,0-8.21777-2.75098-9.54785-7.04004
	c-1.63672-5.2749,1.31348-10.87744,6.58789-12.51367c13.81934-4.28613,26.4834-11.91748,36.81836-22.03613
	c-20.71875-5.21191-39.58301-16.33105-54.3623-32.27393c-19.11719-20.62158-29.64551-47.47412-29.64551-75.61035
	c0-16.81592,3.72266-33.13721,10.87402-48.03467c-19.75,1.99414-38.28027,10.34668-52.94824,24.01758
	c-16.85547,15.70996-27.08203,36.96631-28.79395,59.85352c-0.41113,5.50732-5.22363,9.64648-10.71777,9.22607
	c-5.50684-0.41211-9.6377-5.21045-9.22559-10.71826c2.08789-27.91895,14.55371-53.84131,35.10059-72.99219
	c20.6543-19.25,47.58691-29.85156,75.83594-29.85156c2.97656,0,6.02051,0.12354,9.04785,0.36768
	c3.57617,0.28857,6.72461,2.47119,8.24902,5.71924c1.52441,3.24854,1.19141,7.06445-0.87207,10
	c-10.82715,15.39941-16.5498,33.52344-16.5498,52.4126c0,23.07764,8.63477,45.10156,24.3125,62.01367
	c15.59473,16.82227,36.72461,27.09717,59.49609,28.93262c3.57617,0.28857,6.72461,2.47119,8.24902,5.71924
	c1.52441,3.24854,1.19141,7.06494-0.87207,10c-14.11621,20.07764-34.73926,35.12061-58.07031,42.35742
	C2923.22656,1700.73877,2922.22754,1700.88428,2921.24707,1700.88428z"/>
<path fill="#010202" d="M2729.26562,1921.12695c-2.56152,0-5.12207-0.97754-7.07422-2.93262
	c-3.90332-3.90723-3.90039-10.23926,0.00684-14.1416l23.0498-23.02637c3.90723-3.90332,10.24023-3.90039,14.1416,0.00684
	c3.90332,3.90723,3.90039,10.23926-0.00684,14.1416l-23.0498,23.02637
	C2734.38086,1920.15137,2731.82324,1921.12695,2729.26562,1921.12695z"/>
<path fill="#010202" d="M2649.18555,1868.66113c-2.56152,0-5.12207-0.97754-7.0752-2.93262
	c-3.90234-3.90723-3.89941-10.23926,0.00781-14.14258l14.53613-14.52051c3.90723-3.90332,10.23926-3.89941,14.14258,0.00781
	c3.90234,3.90723,3.89941,10.23926-0.00781,14.14258l-14.53613,14.52051
	C2654.30078,1867.68652,2651.74316,1868.66113,2649.18555,1868.66113z"/>
<path fill="#010202" d="M2777.12891,1868.66113c-2.56152,0-5.12109-0.97754-7.07422-2.93262
	c-3.90332-3.90723-3.90039-10.23828,0.00684-14.1416l14.53516-14.52051c3.90723-3.90332,10.23828-3.90039,14.1416,0.00684
	s3.90039,10.23828-0.00684,14.1416l-14.53516,14.52051C2782.24414,1867.68555,2779.68652,1868.66113,2777.12891,1868.66113z"/>
<path fill="#010202" d="M2818.54883,1891.82324c-2.56152,0-5.12305-0.97754-7.0752-2.93359
	c-3.90332-3.90723-3.89941-10.23926,0.00879-14.1416l37.73145-37.68262c3.9082-3.9043,10.24121-3.89941,14.1416,0.00879
	c3.90332,3.90723,3.89941,10.23926-0.00879,14.1416l-37.73145,37.68262
	C2823.66309,1890.84863,2821.10547,1891.82324,2818.54883,1891.82324z"/>
<path fill="#010202" d="M2679.56055,1901.94824c-2.56152,0-5.12207-0.97754-7.07422-2.93262
	c-3.90332-3.90723-3.90039-10.23926,0.00684-14.1416l47.85645-47.80762c3.90723-3.90332,10.24023-3.90039,14.1416,0.00684
	c3.90332,3.90723,3.90039,10.23926-0.00684,14.1416l-47.85645,47.80762
	C2684.67578,1900.97266,2682.11816,1901.94824,2679.56055,1901.94824z"/>
<path fill="#010202" d="M2335,1712h-253.08203c-19.67188,0-36.29199-16.93896-36.29199-36.98926
	c0-20.396,16.25391-36.98975,36.23242-36.98975c19.96289,0,36.20312,16.48486,36.20312,36.74707c0,5.52295-4.47754,10-10,10
	s-10-4.47705-10-10c0-9.07764-7.41992-16.74707-16.20312-16.74707c-8.79883,0-16.23242,7.78027-16.23242,16.98975
	c0,9.20898,7.46094,16.98926,16.29199,16.98926H2335c5.52246,0,10,4.47705,10,10S2340.52246,1712,2335,1712z"/>
<path fill="#010202" d="M2386,1669h-204.8623c-25.12598,0-45.56738-20.64307-45.56738-46.01709s20.34863-46.01758,45.36035-46.01758
	c24.95508,0,45.25684,20.56055,45.25684,45.83301c0,5.52295-4.47754,10-10,10s-10-4.47705-10-10
	c0-14.24414-11.33008-25.83301-25.25684-25.83301c-13.9834,0-25.36035,11.67139-25.36035,26.01758
	c0,14.10254,11.70801,26.01709,25.56738,26.01709H2386c5.52246,0,10,4.47705,10,10S2391.52246,1669,2386,1669z"/>
<path fill="#010202" d="M2114.36426,1823.82324c-12.13867,0-23.52148-4.60645-32.05273-12.9707
	c-8.61523-8.44629-13.36035-19.79004-13.36035-31.94043c0-24.76465,20.41797-44.91211,45.51465-44.91211H2364
	c5.52246,0,10,4.47754,10,10s-4.47754,10-10,10h-249.53418c-14.30762,0-25.51465,10.94238-25.51465,24.91211
	c0,13.96875,11.16309,24.91113,25.41309,24.91113c14.22168,0,25.3623-11.02344,25.3623-25.0957c0-5.52246,4.47754-10,10-10
	s10,4.47754,10,10C2159.72656,1803.59375,2139.37695,1823.82324,2114.36426,1823.82324z"/>
<path fill="#010202" d="M2363.70801,2277H2111c-5.52246,0-10-4.47754-10-10s4.47754-10,10-10h252.70801
	c8.85645,0,16.33887-7.6084,16.33887-16.61426c0-9.16113-7.26074-16.61426-16.18555-16.61426
	c-8.88281,0-16.10938,7.40039-16.10938,16.49609c0,5.52246-4.47754,10-10,10s-10-4.47754-10-10
	c0-20.12402,16.19824-36.49609,36.10938-36.49609c19.95312,0,36.18555,16.4248,36.18555,36.61426S2383.74512,2277,2363.70801,2277z"
	/>
<path fill="#010202" d="M2264.48828,2234H2060c-5.52246,0-10-4.47754-10-10s4.47754-10,10-10h204.48828
	c14.12402,0,25.61426-11.50293,25.61426-25.64258c0-14.13867-11.35547-25.6416-25.31348-25.6416
	c-13.875,0-25.16309,11.47559-25.16309,25.58203c0,5.52246-4.47754,10-10,10s-10-4.47754-10-10
	c0-25.13379,20.25977-45.58203,45.16309-45.58203c24.98633,0,45.31348,20.47461,45.31348,45.6416S2289.63965,2234,2264.48828,2234z"
	/>
<path fill="#010202" d="M2349.35547,2389.57324c-24.96094,0-45.26855-20.3418-45.26855-45.3457c0-5.52246,4.47754-10,10-10
	s10,4.47754,10,10c0,13.97559,11.33496,25.3457,25.26855,25.3457c13.9873,0,25.36719-11.34375,25.36719-25.28613
	c0-13.94336-11.4668-25.28711-25.5625-25.28711H2080c-5.52246,0-10-4.47754-10-10s4.47754-10,10-10h269.16016
	c25.12305,0,45.5625,20.31543,45.5625,45.28711C2394.72266,2369.25781,2374.37109,2389.57324,2349.35547,2389.57324z"/>
<path fill="#010202" d="M2182.95801,2442.93945c-2.56152,0-5.12207-0.97754-7.07422-2.93262
	c-3.90332-3.90723-3.90039-10.23926,0.00684-14.1416l25.04199-25.0166c3.90723-3.90332,10.24023-3.90039,14.1416,0.00684
	c3.90332,3.90723,3.90039,10.23926-0.00684,14.1416l-25.04199,25.0166
	C2188.07324,2441.96387,2185.51562,2442.93945,2182.95801,2442.93945z"/>
<path fill="#010202" d="M2095.95801,2385.93945c-2.56152,0-5.12109-0.97754-7.07422-2.93262
	c-3.90332-3.90723-3.90039-10.23828,0.00684-14.1416l15.79199-15.77637c3.90723-3.90332,10.23828-3.90039,14.1416,0.00684
	s3.90039,10.23828-0.00684,14.1416l-15.79199,15.77637C2101.07324,2384.96387,2098.51562,2385.93945,2095.95801,2385.93945z"/>
<path fill="#010202" d="M2234.95801,2385.93945c-2.56152,0-5.12109-0.97754-7.07422-2.93262
	c-3.90332-3.90723-3.90039-10.23828,0.00684-14.1416l15.79199-15.77637c3.90723-3.90332,10.23828-3.90039,14.1416,0.00684
	s3.90039,10.23828-0.00684,14.1416l-15.79199,15.77637C2240.07324,2384.96387,2237.51562,2385.93945,2234.95801,2385.93945z"/>
<path fill="#010202" d="M2277.95801,2424.10254c-2.56348,0-5.12695-0.97949-7.08105-2.93848
	c-3.89941-3.91113-3.89062-10.24219,0.01953-14.14258l18.99219-18.93945c3.91113-3.89844,10.24121-3.89258,14.14258,0.01953
	c3.89941,3.91113,3.89062,10.24219-0.01953,14.14258l-18.99219,18.93945
	C2283.06738,2423.12988,2280.5127,2424.10254,2277.95801,2424.10254z"/>
<path fill="#010202" d="M2128.95801,2422.10254c-2.56152,0-5.12207-0.97754-7.07422-2.93262
	c-3.90332-3.90723-3.90039-10.23828,0.00684-14.1416l51.99219-51.93945c3.90723-3.90332,10.24023-3.90039,14.1416,0.00684
	c3.90332,3.90723,3.90039,10.23828-0.00684,14.1416l-51.99219,51.93945
	C2134.07324,2421.12695,2131.51562,2422.10254,2128.95801,2422.10254z"/>
<path fill="#010202" d="M2959.70801,2341H2642c-5.52246,0-10-4.47754-10-10s4.47754-10,10-10h317.70801
	c8.89062,0,16.40137-7.6084,16.40137-16.61426c0-9.16113-7.23242-16.61426-16.12305-16.61426
	c-8.81348,0-15.98438,7.40039-15.98438,16.49609c0,5.52246-4.47754,10-10,10s-10-4.47754-10-10
	c0-20.12402,16.14258-36.49609,35.98438-36.49609c19.91797,0,36.12305,16.4248,36.12305,36.61426S2979.78027,2341,2959.70801,2341z"
	/>
<path fill="#010202" d="M2885.60547,2453.57324c-12.14746,0-23.50195-4.72461-31.9707-13.30273
	c-8.41406-8.52344-13.04785-19.90332-13.04785-32.04297c0-5.52246,4.47754-10,10-10s10,4.47754,10,10
	c0,14.21289,10.98926,25.3457,25.01855,25.3457c14.1543,0,25.24219-11.10742,25.24219-25.28613
	c0-13.94336-11.52344-25.28711-25.6875-25.28711H2617c-5.52246,0-10-4.47754-10-10s4.47754-10,10-10h268.16016
	c25.19238,0,45.6875,20.31543,45.6875,45.28711C2930.84766,2433.25781,2910.55176,2453.57324,2885.60547,2453.57324z"/>
<path fill="#010202" d="M2776.16016,2304H2668c-5.52246,0-10-4.47754-10-10s4.47754-10,10-10h108.16016
	c14.16406,0,25.6875-11.41504,25.6875-25.44629s-11.32324-25.44727-25.24219-25.44727
	c-14.0293,0-25.01855,11.18066-25.01855,25.45312c0,5.52246-4.47754,10-10,10s-10-4.47754-10-10
	c0-25.0625,20.19531-45.45312,45.01855-45.45312c24.94629,0,45.24219,20.3877,45.24219,45.44727S2801.35254,2304,2776.16016,2304z"
	/>
<path fill="#010202" d="M2718.95801,2506.93945c-2.56152,0-5.12207-0.97754-7.07422-2.93262
	c-3.90332-3.90723-3.90039-10.23926,0.00684-14.1416l25.04199-25.0166c3.90723-3.90332,10.24023-3.90039,14.1416,0.00684
	c3.90332,3.90723,3.90039,10.23926-0.00684,14.1416l-25.04199,25.0166
	C2724.07324,2505.96387,2721.51562,2506.93945,2718.95801,2506.93945z"/>
<path fill="#010202" d="M2631.95801,2449.93945c-2.56152,0-5.12109-0.97754-7.07422-2.93262
	c-3.90332-3.90723-3.90039-10.23828,0.00684-14.1416l15.79199-15.77637c3.90723-3.90332,10.23828-3.90039,14.1416,0.00684
	s3.90039,10.23828-0.00684,14.1416l-15.79199,15.77637C2637.07324,2448.96387,2634.51562,2449.93945,2631.95801,2449.93945z"/>
<path fill="#010202" d="M2770.95801,2449.93945c-2.56152,0-5.12109-0.97754-7.07422-2.93262
	c-3.90332-3.90723-3.90039-10.23828,0.00684-14.1416l15.79199-15.77637c3.90723-3.90332,10.23828-3.90039,14.1416,0.00684
	s3.90039,10.23828-0.00684,14.1416l-15.79199,15.77637C2776.07324,2448.96387,2773.51562,2449.93945,2770.95801,2449.93945z"/>
<path fill="#010202" d="M2813.95801,2488.10254c-2.56348,0-5.12695-0.97949-7.08105-2.93848
	c-3.89941-3.91113-3.89062-10.24219,0.01953-14.14258l18.99219-18.93945c3.91113-3.89941,10.24121-3.8916,14.14258,0.01953
	c3.89941,3.91113,3.89062,10.24219-0.01953,14.14258l-18.99219,18.93945
	C2819.06738,2487.12988,2816.5127,2488.10254,2813.95801,2488.10254z"/>
<path fill="#010202" d="M2664.95801,2486.10254c-2.56152,0-5.12207-0.97754-7.07422-2.93262
	c-3.90332-3.90723-3.90039-10.23828,0.00684-14.1416l51.99219-51.93945c3.90723-3.90332,10.24023-3.90039,14.1416,0.00684
	c3.90332,3.90723,3.90039,10.23828-0.00684,14.1416l-51.99219,51.93945
	C2670.07324,2485.12695,2667.51562,2486.10254,2664.95801,2486.10254z"/>
<path fill="#010202" d="M2846.77539,2305H2837c-5.52246,0-10-4.47754-10-10s4.47754-10,10-10h9.60254
	c25.16992-0.91211,44.8623-20.81152,44.8623-45.37012c0-24.98633-20.2959-45.31348-45.24219-45.31348
	c-1.2832,0-2.29395,0.02832-3.18066,0.08984c-2.66992,0.1875-5.27441-0.69727-7.27637-2.44922
	c-2.00293-1.75195-3.22461-4.23047-3.39551-6.88574c-2.63672-41.10547-36.99414-73.30371-78.21777-73.30371
	c-27.64844,0-52.72461,14.12891-67.0791,37.79395c-1.59473,2.62988-4.31152,4.37988-7.36523,4.74414
	c-3.04492,0.3623-6.10547-0.69629-8.27441-2.87793c-4.66016-4.68457-10.8584-7.26465-17.45508-7.26465
	c-13.57422,0-24.61816,11.04297-24.61816,24.61621c0,3.87109,0.87891,7.58301,2.6123,11.03223
	c1.52734,3.03809,1.40625,6.64258-0.32031,9.57031c-1.72754,2.92871-4.82324,4.7793-8.21973,4.91309
	c-24.29688,0.95898-43.33008,20.81055-43.33008,45.19336c0,24.85645,20.20117,45.21191,45.03223,45.375l8.62988,0.00488
	c5.52246,0.00293,9.99707,4.48242,9.99414,10.00586c-0.00293,5.52051-4.47949,9.99414-10,9.99414c-0.00195,0-0.00391,0-0.00586,0
	l-8.69043-0.00488c-35.8457-0.23633-64.95996-29.56348-64.95996-65.375c0-30.79004,21.06152-56.56934,49.84473-63.43652
	c-0.39062-2.38379-0.58691-4.81055-0.58691-7.27246c0-24.60156,20.01562-44.61621,44.61816-44.61621
	c7.92871,0,15.53809,2.05371,22.22656,5.91211c18.55078-24.17188,46.95996-38.30762,77.94727-38.30762
	c48.59668,0,89.5918,35.65723,97.13867,82.74414c33.61426,2.59863,60.17383,30.8125,60.17383,65.11816
	c0,35.45996-28.26953,64.17188-64.35938,65.36426C2846.99609,2304.99805,2846.88574,2305,2846.77539,2305z"/>
<path fill="#010202" d="M474.7168,1188.19238c-38.47168-0.25342-69.7168-31.6582-69.7168-70.00635
	c0-33.32422,22.98682-61.17969,54.27881-68.2627c-0.50879-2.79932-0.76416-5.65576-0.76416-8.55908
	c0-26.25244,21.35791-47.61035,47.61084-47.61035c8.71973,0,17.07764,2.32715,24.36963,6.68799
	c19.98096-26.42285,50.81201-41.89746,84.46045-41.89746c52.58838,0,96.91553,38.73828,104.78027,89.78418
	C756.13428,1050.78076,785,1081.17627,785,1118.18604c0,38.22217-31.0957,69.62451-69.31787,70.00098L474.7168,1188.19238z
	 M506.12549,1013.75391c-15.22461,0-27.61084,12.38574-27.61084,27.61035c0,4.34326,0.98584,8.50684,2.93018,12.37402
	c1.52686,3.03711,1.40625,6.64209-0.32031,9.5708c-1.72656,2.92822-4.82275,4.77881-8.21973,4.91309
	C446.04248,1069.28271,425,1091.22949,425,1118.18604c0,27.39258,22.33252,49.82568,49.78271,50.00635l240.80078-0.00488
	c27.2041-0.26855,49.4165-22.69922,49.4165-50.00146c0-27.57959-22.4375-50.01709-50.0166-50.01709
	c-1.02783,0-2.14502,0.04443-3.51562,0.13965c-2.65332,0.18506-5.27393-0.69727-7.27686-2.44922
	c-2.00293-1.75244-3.2251-4.23096-3.39551-6.88672c-2.89307-45.1001-40.59814-80.42822-85.83984-80.42822
	c-30.33984,0-57.85889,15.50879-73.61377,41.48584c-1.59473,2.62988-4.31152,4.37939-7.36572,4.74414
	c-3.05273,0.36035-6.10596-0.69678-8.2749-2.87793C520.479,1016.64551,513.52686,1013.75391,506.12549,1013.75391z"/>
<path fill="#010202" d="M715.57959,1764.09082l-10.58398-0.00391c-5.52246-0.00195-9.99805-4.48047-9.99609-10.00391
	c0.00195-5.52148,4.479-9.99609,10-9.99609c0.00146,0,0.00244,0,0.00391,0l10.53174,0.00391
	C742.81494,1743.7959,765,1721.39746,765,1694.1377c0-27.56592-22.4375-49.99268-50.0166-49.99268
	c-1.17871,0-2.43848,0.07666-3.51562,0.15137c-2.65332,0.18652-5.27393-0.69678-7.27686-2.44922s-3.2251-4.23096-3.39551-6.88672
	c-2.89258-45.09668-40.59814-80.42236-85.83984-80.42236c-30.33838,0-57.85742,15.51025-73.61377,41.48926
	c-1.59473,2.62988-4.31152,4.37939-7.36572,4.74414c-3.05273,0.35986-6.10596-0.69678-8.2749-2.87793
	c-5.22119-5.25-12.17334-8.14111-19.57568-8.14111c-15.22461,0-27.61084,12.38623-27.61084,27.61133
	c0,4.34375,0.98584,8.50684,2.93018,12.37402c1.52686,3.03711,1.40625,6.64209-0.32031,9.5708
	c-1.72656,2.92822-4.82275,4.77881-8.21973,4.91309C446.04248,1645.28223,425,1667.18701,425,1694.08936
	c0,27.521,22.30273,49.91064,49.7168,49.91064H485c5.52295,0,10,4.47754,10,10s-4.47705,10-10,10h-10.2832
	C436.2749,1764,405,1732.63867,405,1694.08936c0-33.27637,22.98633-61.09375,54.27881-68.16797
	c-0.5083-2.79883-0.76416-5.65527-0.76416-8.55762c0-26.25293,21.35791-47.61133,47.61084-47.61133
	c8.7207,0,17.07764,2.32617,24.36914,6.68701c19.98242-26.4248,50.81396-41.90137,84.46094-41.90137
	c52.58496,0,96.90967,38.72852,104.77832,89.76611C756.13574,1626.75244,785,1657.13818,785,1694.1377
	c0,38.19629-31.09619,69.57715-69.31836,69.95215C715.64795,1764.09082,715.61377,1764.09082,715.57959,1764.09082z"/>
<path fill="#010202" d="M501.0332,1858.08496c-2.55713,0-5.11377-0.97461-7.06592-2.92383
	c-3.9082-3.90234-3.9126-10.23438-0.01025-14.14258L536.91504,1798H511.0332c-4.0918,0-7.77051-2.49219-9.2876-6.29297
	c-1.5166-3.7998-0.56543-8.14062,2.40137-10.95801l63-59.8291c4.00488-3.80273,10.33398-3.6416,14.13721,0.36523
	c3.80322,4.00391,3.64014,10.33398-0.36475,14.13672L536.08496,1778h24.94824c4.04346,0,7.68896,2.43457,9.2373,6.16992
	c1.54883,3.73535,0.6958,8.03516-2.16113,10.89648l-60,60.08496C506.15625,1857.10645,503.59473,1858.08496,501.0332,1858.08496z"/>
<path fill="#010202" d="M602.95801,1822.93945c-2.56104,0-5.12158-0.97754-7.07471-2.93262
	c-3.90332-3.90723-3.8999-10.23828,0.00732-14.1416L638.79883,1763h-25.84082c-4.0874,0-7.76318-2.4873-9.28271-6.28125
	c-1.52002-3.79395-0.57812-8.13184,2.37891-10.95312l63-60.12109c3.99561-3.8125,10.3252-3.66553,14.13818,0.33057
	c3.81299,3.99561,3.66504,10.3252-0.33057,14.13818L637.92139,1743h25.03662c4.04541,0,7.69238,2.4375,9.23975,6.17578
	c1.54736,3.7373,0.68994,8.04004-2.17236,10.89844l-60,59.93945C608.07324,1821.96387,605.51562,1822.93945,602.95801,1822.93945z"
	/>
<path fill="#010202" d="M551.95801,1870.93945c-2.56104,0-5.12158-0.97754-7.07471-2.93262
	c-3.90332-3.90723-3.8999-10.23926,0.00732-14.1416l25.04199-25.0166c3.90723-3.90332,10.23877-3.90039,14.14209,0.00684
	s3.8999,10.23926-0.00732,14.1416l-25.04199,25.0166C557.07324,1869.96387,554.51514,1870.93945,551.95801,1870.93945z"/>
<path fill="#010202" d="M460.95801,1837.93945c-2.56104,0-5.12158-0.97754-7.07471-2.93262
	c-3.90332-3.90723-3.8999-10.23828,0.00732-14.1416l15.79199-15.77637c3.90723-3.90234,10.23877-3.89941,14.14209,0.00684
	c3.90332,3.90723,3.8999,10.23828-0.00732,14.1416l-15.79199,15.77637
	C466.07324,1836.96387,463.51562,1837.93945,460.95801,1837.93945z"/>
<path fill="#010202" d="M639.95801,1851.93945c-2.56104,0-5.12158-0.97754-7.07471-2.93262
	c-3.90332-3.90723-3.8999-10.23828,0.00732-14.1416l51.99219-51.93945c3.90723-3.90332,10.23877-3.90039,14.14209,0.00684
	s3.8999,10.23828-0.00732,14.1416l-51.99219,51.93945C645.07324,1850.96387,642.51514,1851.93945,639.95801,1851.93945z"/>
<path fill="#010202" d="M1245.57959,2354.09082l-10.58398-0.00391l0,0L1004.7168,2354C966.2749,2354,935,2322.63867,935,2284.08984
	c0-33.27637,22.98633-61.09375,54.27881-68.16797c-0.50879-2.79883-0.76416-5.65625-0.76416-8.55859
	c0-26.25293,21.35791-47.61035,47.61084-47.61035c8.72021,0,17.07812,2.32617,24.36914,6.68652
	c19.98242-26.4248,50.81396-41.90137,84.46094-41.90137c52.58496,0,96.90967,38.72852,104.77832,89.7666
	c36.40186,2.44824,65.26611,32.83398,65.26611,69.83301c0,38.19629-31.09619,69.57715-69.31836,69.95215
	C1245.64795,2354.09082,1245.61377,2354.09082,1245.57959,2354.09082z M1235.00342,2334.08691l10.53174,0.00391
	C1272.81494,2333.7959,1295,2311.39746,1295,2284.1377c0-27.56543-22.4375-49.99219-50.0166-49.99219
	c-1.18506,0-2.44189,0.07617-3.51562,0.15039c-2.65137,0.19336-5.27344-0.69629-7.27686-2.44922
	c-2.00293-1.75195-3.2251-4.23047-3.39551-6.88574c-2.89258-45.09668-40.59814-80.42285-85.83984-80.42285
	c-30.33838,0-57.85742,15.50977-73.61377,41.48926c-1.59473,2.62988-4.31152,4.37988-7.36572,4.74414
	c-3.05371,0.36035-6.10645-0.69727-8.2749-2.87793c-5.2207-5.25-12.17285-8.14062-19.57568-8.14062
	c-15.22461,0-27.61084,12.38574-27.61084,27.61035c0,4.34473,0.98584,8.50781,2.92969,12.37402
	c1.52734,3.03711,1.40674,6.64258-0.31982,9.57129c-1.72656,2.92773-4.82275,4.7793-8.21973,4.91309
	C976.04248,2235.28223,955,2257.1875,955,2284.08984C955,2311.61035,977.30273,2334,1004.7168,2334H1015L1235.00342,2334.08691z"/>
<path fill="#010202" d="M1222.625,2439c-0.00244,0-0.00439,0-0.00684,0l-56.375-0.02393
	c-5.52246-0.00391-9.99658-4.47144-9.99316-9.99487c0.00342-5.52051,4.48047-9.9812,10-9.9812c0.00244,0,0.00439,0,0.00684,0
	l56.375,0.03174c5.52246,0.00391,9.99658,4.46753,9.99316,9.99097C1232.62158,2434.54321,1228.14453,2439,1222.625,2439z"/>
<path fill="#010202" d="M1127.25,2439c-0.00146,0-0.00244,0-0.00391,0l-99.41602-0.02393
	c-5.52246-0.00195-9.99805-4.46851-9.99609-9.99194c0.00195-5.52148,4.479-9.98413,10-9.98413c0.00146,0,0.00244,0,0.00391,0
	l99.41602,0.03174c5.52246,0.00195,9.99805,4.4646,9.99609,9.98804C1137.24805,2434.54126,1132.771,2439,1127.25,2439z"/>
<path fill="#010202" d="M1245.875,2397c-0.00098,0-0.00195,0-0.00293,0l-129.54102-0.02393
	c-5.52295-0.00195-9.99854-4.46851-9.99707-9.99097c0.00146-5.52148,4.47852-9.98511,10-9.98511c0.00098,0,0.00195,0,0.00293,0
	l129.54102,0.03174c5.52295,0.00195,9.99854,4.4646,9.99707,9.98706C1255.87354,2392.54028,1251.39648,2397,1245.875,2397z"/>
<path fill="#010202" d="M1078.875,2397c-0.00195,0-0.00293,0-0.00537,0l-71.54102-0.02393
	c-5.52246-0.00293-9.99756-4.47046-9.99463-9.99292c0.00293-5.52148,4.47998-9.98315,10-9.98315c0.00195,0,0.00293,0,0.00537,0
	l71.54102,0.03174c5.52246,0.00293,9.99756,4.46655,9.99463,9.98901C1088.87207,2392.54224,1084.39502,2397,1078.875,2397z"/>
<path fill="#010202" d="M1675.91211,2414.09766c-66.16797,0-120-53.83203-120-120s53.83203-120,120-120
	c3.20557,0,6.48975,0.13379,9.76074,0.39746c3.57715,0.28906,6.72461,2.47168,8.24902,5.71973s1.19141,7.06445-0.87207,10
	c-11.86572,16.87598-18.1377,36.73828-18.1377,57.43848c0,25.29102,9.4624,49.42578,26.64453,67.95996
	c17.08984,18.43555,40.24609,29.69629,65.20215,31.70801c3.57617,0.28809,6.72461,2.4707,8.24902,5.71973
	c1.52441,3.24805,1.19141,7.06445-0.87207,10C1751.65723,2395.01074,1714.93848,2414.09766,1675.91211,2414.09766z
	 M1667.31299,2194.46387c-51.12842,4.37695-91.40088,47.3916-91.40088,99.63379c0,55.14062,44.85986,100,100,100
	c26.89062,0,52.46777-10.87598,71.1123-29.70801c-22.93555-5.45605-43.83691-17.59863-60.13477-35.17871
	c-20.62109-22.24414-31.97754-51.20801-31.97754-81.55762C1654.91211,2228.99512,1659.16016,2210.90137,1667.31299,2194.46387z"/>
<path fill="#010202" d="M1245.57959,1764.09082l-10.58398-0.00391l0,0L1004.7168,1764C966.2749,1764,935,1732.63867,935,1694.08936
	c0-33.27637,22.98633-61.09375,54.27881-68.16797c-0.5083-2.79883-0.76416-5.65527-0.76416-8.55762
	c0-26.25293,21.35791-47.61133,47.61084-47.61133c8.7207,0,17.07764,2.32617,24.36914,6.68701
	c19.98242-26.4248,50.81396-41.90137,84.46094-41.90137c52.58496,0,96.90967,38.72852,104.77832,89.76611
	c36.40186,2.44824,65.26611,32.83398,65.26611,69.8335c0,38.19629-31.09619,69.57715-69.31836,69.95215
	C1245.64795,1764.09082,1245.61377,1764.09082,1245.57959,1764.09082z M1235.00342,1744.08691l10.53174,0.00391
	C1272.81494,1743.7959,1295,1721.39746,1295,1694.1377c0-27.56592-22.4375-49.99268-50.0166-49.99268
	c-1.17871,0-2.43848,0.07666-3.51562,0.15137c-2.65137,0.18652-5.27344-0.69678-7.27686-2.44922
	c-2.00293-1.75244-3.2251-4.23096-3.39551-6.88672c-2.89258-45.09668-40.59814-80.42236-85.83984-80.42236
	c-30.33838,0-57.85742,15.51025-73.61377,41.48926c-1.59473,2.62988-4.31152,4.37939-7.36572,4.74414
	c-3.05518,0.35986-6.10596-0.69678-8.2749-2.87793c-5.22119-5.25-12.17334-8.14111-19.57568-8.14111
	c-15.22461,0-27.61084,12.38623-27.61084,27.61133c0,4.34375,0.98584,8.50684,2.93018,12.37402
	c1.52686,3.03711,1.40625,6.64209-0.32031,9.5708c-1.72656,2.92822-4.82275,4.77881-8.21973,4.91309
	C976.04248,1645.28223,955,1667.18701,955,1694.08936c0,27.521,22.30273,49.91064,49.7168,49.91064H1015L1235.00342,1744.08691z"/>
<path fill="#010202" d="M1089.95801,1870.93945c-2.56104,0-5.12158-0.97754-7.07471-2.93262
	c-3.90332-3.90723-3.8999-10.23926,0.00732-14.1416l25.04199-25.0166c3.90771-3.90332,10.23926-3.90039,14.14209,0.00684
	c3.90332,3.90723,3.8999,10.23926-0.00732,14.1416l-25.04199,25.0166
	C1095.07324,1869.96387,1092.51514,1870.93945,1089.95801,1870.93945z"/>
<path fill="#010202" d="M1002.95801,1813.93945c-2.56104,0-5.12158-0.97754-7.07471-2.93262
	c-3.90332-3.90723-3.8999-10.23828,0.00732-14.1416l15.79199-15.77637c3.90723-3.90332,10.23877-3.90039,14.14209,0.00684
	s3.8999,10.23828-0.00732,14.1416l-15.79199,15.77637C1008.07324,1812.96387,1005.51562,1813.93945,1002.95801,1813.93945z"/>
<path fill="#010202" d="M1141.95801,1813.93945c-2.56104,0-5.12158-0.97754-7.07471-2.93262
	c-3.90332-3.90723-3.8999-10.23828,0.00732-14.1416l15.79199-15.77637c3.90723-3.90332,10.23877-3.90039,14.14209,0.00684
	s3.8999,10.23828-0.00732,14.1416l-15.79199,15.77637C1147.07324,1812.96387,1144.51562,1813.93945,1141.95801,1813.93945z"/>
<path fill="#010202" d="M1186.95801,1839.10254c-2.56152,0-5.12256-0.97754-7.07568-2.93359
	c-3.90283-3.90723-3.89844-10.23926,0.00928-14.1416l40.99219-40.93945c3.90771-3.90332,10.23926-3.89941,14.14209,0.00879
	c3.90283,3.90723,3.89844,10.23926-0.00928,14.1416l-40.99219,40.93945
	C1192.07227,1838.12793,1189.51514,1839.10254,1186.95801,1839.10254z"/>
<path fill="#010202" d="M1035.95801,1850.10254c-2.56104,0-5.12158-0.97754-7.07471-2.93262
	c-3.90332-3.90723-3.8999-10.23828,0.00732-14.1416l51.99219-51.93945c3.90723-3.90332,10.23877-3.90039,14.14209,0.00684
	s3.8999,10.23828-0.00732,14.1416l-51.99219,51.93945C1041.07324,1849.12695,1038.51514,1850.10254,1035.95801,1850.10254z"/>
<path fill="#010202" d="M1785.5791,1742.09082l-10.58398-0.00391l0,0L1544.7168,1742c-38.44189,0-69.7168-31.36133-69.7168-69.91064
	c0-33.27637,22.98633-61.09375,54.27881-68.16797c-0.5083-2.79883-0.76416-5.65527-0.76416-8.55762
	c0-26.25293,21.35791-47.61133,47.61084-47.61133c8.7207,0,17.07764,2.32617,24.36914,6.68701
	c19.98242-26.4248,50.81396-41.90137,84.46094-41.90137c52.58447,0,96.90967,38.72852,104.77881,89.76611
	c36.40234,2.44824,65.26562,32.83398,65.26562,69.8335c0,38.19629-31.09668,69.57715-69.31836,69.95215
	C1785.64746,1742.09082,1785.61328,1742.09082,1785.5791,1742.09082z M1775.00293,1722.08691l10.53125,0.00391
	C1812.81445,1721.7959,1835,1699.39697,1835,1672.1377c0-27.56592-22.4375-49.99268-50.0166-49.99268
	c-1.17871,0-2.43848,0.07666-3.51465,0.15137c-2.64258,0.18213-5.27344-0.69678-7.27734-2.44922
	c-2.00293-1.75244-3.22559-4.23096-3.39551-6.88672c-2.89355-45.09668-40.59863-80.42236-85.84033-80.42236
	c-30.33838,0-57.85742,15.51025-73.61377,41.48926c-1.59473,2.62988-4.31152,4.37939-7.36572,4.74414
	c-3.05225,0.3623-6.10596-0.69678-8.2749-2.87793c-5.22119-5.25-12.17334-8.14111-19.57568-8.14111
	c-15.22461,0-27.61084,12.38623-27.61084,27.61133c0,4.34375,0.98584,8.50684,2.93018,12.37402
	c1.52686,3.03711,1.40625,6.64209-0.32031,9.5708c-1.72656,2.92822-4.82275,4.77881-8.21973,4.91309
	c-26.8623,1.06055-47.90479,22.96533-47.90479,49.86768c0,27.521,22.30273,49.91064,49.7168,49.91064H1555L1775.00293,1722.08691z"
	/>
<path fill="#010202" d="M1569.00244,1877.05371c-2.56104,0-5.12158-0.97754-7.07471-2.93262
	c-3.90332-3.90723-3.8999-10.23828,0.00732-14.1416l61.90332-61.84082c3.90723-3.90234,10.23877-3.90039,14.14209,0.00684
	s3.8999,10.23828-0.00732,14.1416l-61.90332,61.84082C1574.11768,1876.07812,1571.56006,1877.05371,1569.00244,1877.05371z"/>
<path fill="#010202" d="M1630.87451,1877.08496c-2.56104,0-5.12158-0.97754-7.07471-2.93262l-61.84082-61.90332
	c-3.90332-3.90723-3.8999-10.23828,0.00732-14.1416c3.90771-3.90234,10.23926-3.90039,14.14209,0.00684l61.84082,61.90332
	c3.90332,3.90723,3.8999,10.23828-0.00732,14.1416C1635.98975,1876.10938,1633.43213,1877.08496,1630.87451,1877.08496z"/>
<path fill="#010202" d="M1649.9541,1846c-0.00195,0-0.00293,0-0.00488,0l-100,0.0293
	c-5.52295-0.00293-9.99805-4.49707-9.99512-10.01953c0.00293-5.52148,4.47949-10.00977,10-10.00977c0.00146,0,0.00342,0,0.00488,0
	l100,0.104c5.52295,0.00293,9.99805,4.43042,9.99512,9.95288C1659.95117,1841.57739,1655.47412,1846,1649.9541,1846z"/>
<path fill="#010202" d="M1599.92871,1896c-0.00195,0-0.00293,0-0.00488,0c-5.52295,0-9.99805-4.41602-9.99512-9.93848
	l0.05078-100.0332c0.00293-5.52148,4.47998-10.02832,10-10.02832c0.00195,0,0.00293,0,0.00488,0
	c5.52295,0,9.99805,4.54883,9.99512,10.07129l-0.05078,99.9668C1609.92578,1891.55957,1605.44873,1896,1599.92871,1896z"/>
<path fill="#010202" d="M1707.71094,1832.73438c-3.44531,0-6.79688-1.78125-8.65332-4.97363
	c-2.77734-4.77344-1.15918-10.89453,3.61523-13.67188l60.50586-35.19922c4.77441-2.78125,10.89551-1.15918,13.67188,3.61523
	c2.77734,4.77344,1.15918,10.89453-3.61523,13.67188l-60.50586,35.19922
	C1711.14746,1832.29688,1709.41797,1832.73438,1707.71094,1832.73438z"/>
<path fill="#010202" d="M1768.70703,1831.83008c-1.61133,0-3.24512-0.39062-4.76172-1.21289l-61.52344-33.39062
	c-4.85352-2.63477-6.65332-8.70508-4.01855-13.55957c2.63379-4.85352,8.70312-6.65234,13.55957-4.01855l61.52344,33.39062
	c4.85352,2.63477,6.65332,8.70508,4.01855,13.55957C1775.69336,1829.93652,1772.25586,1831.83008,1768.70703,1831.83008z"/>
<path fill="#010202" d="M1737.93652,1850c-0.00195,0-0.00293,0-0.00488,0c-5.52344,0-9.99805-4.70996-9.99512-10.23242
	l0.03516-68.79785c0.00293-5.52148,4.47949-9.96973,10-9.96973c0.00195,0,0.00293,0,0.00488,0
	c5.52344,0,9.99805,4.34326,9.99512,9.86572l-0.03516,68.9812C1747.93359,1845.36841,1743.45703,1850,1737.93652,1850z"/>
<path fill="#010202" d="M519.71045,2389.73438c-3.44434,0-6.79639-1.78125-8.65283-4.97363
	c-2.77734-4.77344-1.15869-10.89453,3.61523-13.67188l60.50635-35.19922c4.77246-2.7793,10.89502-1.15918,13.67188,3.61523
	c2.77734,4.77344,1.15869,10.89453-3.61523,13.67188l-60.50635,35.19922
	C523.14795,2389.29688,521.41748,2389.73438,519.71045,2389.73438z"/>
<path fill="#010202" d="M580.70703,2388.83008c-1.61133,0-3.24561-0.39062-4.76123-1.21289l-61.52295-33.39062
	c-4.854-2.63477-6.65332-8.70508-4.01904-13.55957c2.63477-4.85352,8.70508-6.65137,13.55908-4.01855l61.52295,33.39062
	c4.854,2.63477,6.65332,8.70508,4.01904,13.55957C587.69287,2386.93652,584.25586,2388.83008,580.70703,2388.83008z"/>
<path fill="#010202" d="M549.93652,2407c-0.00195,0-0.00293,0-0.00488,0c-5.52295,0-9.99805-4.70996-9.99512-10.23242
	l0.03516-68.79785c0.00293-5.52148,4.47998-9.96973,10-9.96973c0.00195,0,0.00293,0,0.00488,0
	c5.52295,0,9.99805,4.34326,9.99512,9.86572l-0.03516,68.9812C559.93359,2402.36841,555.45654,2407,549.93652,2407z"/>
<path fill="#010202" d="M614.71045,2355.73438c-3.44434,0-6.79639-1.78125-8.65283-4.97363
	c-2.77734-4.77344-1.15869-10.89453,3.61523-13.67188l60.50635-35.19922c4.77197-2.7793,10.89453-1.16016,13.67188,3.61523
	c2.77734,4.77344,1.15869,10.89453-3.61523,13.67188l-60.50635,35.19922
	C618.14795,2355.29688,616.41748,2355.73438,614.71045,2355.73438z"/>
<path fill="#010202" d="M675.70703,2354.83008c-1.61133,0-3.24561-0.39062-4.76123-1.21289l-61.52295-33.39062
	c-4.854-2.63477-6.65332-8.70508-4.01904-13.55957c2.63477-4.85352,8.70508-6.65234,13.55908-4.01855l61.52295,33.39062
	c4.854,2.63477,6.65332,8.70508,4.01904,13.55957C682.69287,2352.93652,679.25586,2354.83008,675.70703,2354.83008z"/>
<path fill="#010202" d="M644.93652,2373c-0.00195,0-0.00293,0-0.00488,0c-5.52295,0-9.99805-4.70996-9.99512-10.23242
	l0.03516-68.79785c0.00293-5.52148,4.47998-9.96973,10-9.96973c0.00195,0,0.00293,0,0.00488,0
	c5.52295,0,9.99805,4.34326,9.99512,9.86572l-0.03516,68.9812C654.93359,2368.36841,650.45654,2373,644.93652,2373z"/>
<path fill="#010202" d="M532.95801,2471.93945c-2.56104,0-5.12158-0.97754-7.07471-2.93262
	c-3.90332-3.90723-3.8999-10.23926,0.00732-14.1416l25.04199-25.0166c3.90723-3.90332,10.23877-3.90039,14.14209,0.00684
	s3.8999,10.23926-0.00732,14.1416l-25.04199,25.0166C538.07324,2470.96387,535.51514,2471.93945,532.95801,2471.93945z"/>
<path fill="#010202" d="M483.95801,2438.93945c-2.56104,0-5.12158-0.97754-7.07471-2.93262
	c-3.90332-3.90723-3.8999-10.23828,0.00732-14.1416l15.79199-15.77637c3.90723-3.90234,10.23877-3.90039,14.14209,0.00684
	s3.8999,10.23828-0.00732,14.1416l-15.79199,15.77637C489.07324,2437.96387,486.51562,2438.93945,483.95801,2438.93945z"/>
<path fill="#010202" d="M598.95801,2423.93945c-2.56104,0-5.12158-0.97754-7.07471-2.93262
	c-3.90332-3.90723-3.8999-10.23828,0.00732-14.1416l15.79199-15.77637c3.90771-3.90234,10.23926-3.90039,14.14209,0.00684
	c3.90332,3.90723,3.8999,10.23828-0.00732,14.1416l-15.79199,15.77637
	C604.07324,2422.96387,601.51562,2423.93945,598.95801,2423.93945z"/>
<path fill="#010202" d="M639.95801,2441.93945c-2.56104,0-5.12158-0.97754-7.07471-2.93262
	c-3.90332-3.90723-3.8999-10.23828,0.00732-14.1416l51.99219-51.93945c3.90723-3.90332,10.23877-3.90039,14.14209,0.00684
	s3.8999,10.23828-0.00732,14.1416l-51.99219,51.93945C645.07324,2440.96387,642.51514,2441.93945,639.95801,2441.93945z"/>
<path fill="#010202" d="M716.07959,2354.09082l-10.08398-0.00391c-5.52295-0.00195-9.99805-4.48145-9.99609-10.00391
	c0.00195-5.52148,4.479-9.99609,10-9.99609c0.00146,0,0.00244,0,0.00391,0l10.03174,0.00391
	c13.21387-0.14355,25.58496-5.38574,34.83838-14.76562c9.27051-9.39844,14.37646-21.89453,14.37646-35.1875
	c0-27.56543-22.49365-49.99219-50.1416-49.99219c-1.26123,0-2.646,0.08594-3.57812,0.15039
	c-2.65381,0.19336-5.27344-0.69629-7.27686-2.44922c-2.00293-1.75195-3.2251-4.23047-3.39551-6.88574
	c-2.89258-45.09668-40.61182-80.42285-85.87109-80.42285c-30.34814,0-57.87305,15.50977-73.62939,41.48926
	c-1.59473,2.62988-4.31152,4.37988-7.36572,4.74414c-3.0542,0.36035-6.10596-0.69727-8.2749-2.87793
	c-5.2207-5.25-12.17578-8.14062-19.5835-8.14062c-15.22705,0-27.61475,12.38574-27.61475,27.61035
	c0,4.34668,0.98486,8.50977,2.92773,12.37402c1.52734,3.03711,1.40674,6.64258-0.31982,9.57129
	c-1.72656,2.92773-4.82275,4.7793-8.21973,4.91309c-26.86279,1.06055-47.90576,22.96582-47.90576,49.86816
	c0,27.52051,22.30225,49.91016,49.71582,49.91016H487c5.52295,0,10,4.47754,10,10s-4.47705,10-10,10h-12.2832
	c-38.44141,0-69.71582-31.36133-69.71582-69.91016c0-33.27637,22.98828-61.09473,54.28076-68.16895
	c-0.50781-2.79785-0.76318-5.65527-0.76318-8.55762c0-26.25293,21.35986-47.61035,47.61475-47.61035
	c8.72461,0,17.08447,2.32617,24.37695,6.68652c19.9834-26.4248,50.8208-41.90137,84.47656-41.90137
	c52.59814,0,96.93457,38.72949,104.80859,89.76172c36.5,2.41406,65.45459,32.81543,65.45459,69.83789
	c0,18.58301-7.15186,36.06738-20.13818,49.23242c-13.00098,13.17871-30.37793,20.53809-48.93018,20.71973
	C716.14795,2354.09082,716.11377,2354.09082,716.07959,2354.09082z"/>
</svg>
